# AST/ASF file generated using VICON BodyLanguage
# -----------------------------------------------
:version 1.10
:name VICON
:units
  mass 1.0
  length 0.45
  angle deg
:documentation
   .ast/.asf automatically generated from VICON data using
   VICON BodyBuilder and BodyLanguage model FoxedUp or BRILLIANT.MOD
:root
   order TX TY TZ RX RY RZ
   axis XYZ
   position 0 0 0  
   orientation 0 0 0 
:bonedata
  begin
     id 1 
     name lhipjoint
     direction 0.711131 -0.61297 0.344326 
     length 2.29162 
     axis 0 0 0  XYZ
  end
  begin
     id 2 
     name lfemur
     direction 0.34202 -0.939693 0  
     length 6.71424  
     axis 0 0 20  XYZ
    dof rx ry rz
    limits (-160.0 20.0)
           (-70.0 70.0)
           (-60.0 70.0)
  end
  begin
     id 3 
     name ltibia
     direction 0.34202 -0.939693 0   
     length 6.7087   
     axis 0 0 20   XYZ
    dof rx
    limits (-10.0 170.0)
  end
  begin
     id 4 
     name lfoot
     direction 0.0230374 -0.0632947 0.997729   
     length 1.56743   
     axis -90 7.62852e-016 20   XYZ
    dof rx rz
    limits (-45.0 90.0)
           (-70.0 20.0)
  end
  begin
     id 5 
     name ltoes
     direction 1.53585e-011 -4.21885e-011 1   
     length 0.802914   
     axis -90 7.62852e-016 20   XYZ
    dof rx
    limits (-90.0 20.0)
  end
  begin
     id 6 
     name rhipjoint
     direction -0.733192 -0.592884 0.333043   
     length 2.36925  
     axis 0 0 0  XYZ 
  end
  begin
     id 7 
     name rfemur
     direction -0.34202 -0.939693 0   
     length 6.67027   
     axis 0 0 -20   XYZ
    dof rx ry rz
    limits (-160.0 20.0)
           (-70.0 70.0)
           (-70.0 60.0)
  end
  begin
     id 8 
     name rtibia
     direction -0.34202 -0.939693 0   
     length 6.6862   
     axis 0 0 -20   XYZ
    dof rx
    limits (-10.0 170.0)
 end
 begin
     id 9 
     name rfoot
     direction -0.0949739 -0.260939 0.960672   
     length 1.67698  
     axis -90 -7.62852e-016 -20   XYZ
    dof rx rz
    limits (-45.0 90.0)
           (-20.0 70.0)
  end
  begin
     id 10 
     name rtoes
     direction -1.5353e-011 -4.21868e-011 1   
     length 0.846298   
     axis -90 -7.62852e-016 -20   XYZ
    dof rx
    limits (-90.0 20.0)
  end
  begin
     id 11 
     name lowerback
     direction -0.0206828 0.999785 -0.00109866   
     length 2.04382   
     axis 0 0 0   XYZ
    dof rx ry rz
    limits (-20.0 45.0)
           (-30.0 30.0)
           (-30.0 30.0)
  end
  begin
     id 12 
     name upperback
     direction -0.0105003 0.999727 -0.0208904   
     length 2.04538   
     axis 0 0 0   XYZ
    dof rx ry rz
    limits (-20.0 45.0)
           (-30.0 30.0)
           (-30.0 30.0)
  end
  begin
     id 13 
     name thorax
     direction -0.000416255 0.999808 -0.0196023   
     length 2.0399   
     axis 0 0 0   XYZ
    dof rx ry rz
    limits (-20.0 45.0)
           (-30.0 30.0)
           (-30.0 30.0)
  end
  begin
     id 14 
     name lowerneck
     direction 0.0627861 0.989205 0.13241   
     length 1.46207   
     axis 0 0 0   XYZ
    dof rx ry rz
    limits (-20.0 45.0)
           (-30.0 30.0)
           (-30.0 30.0)
  end
  begin
     id 15 
     name upperneck
     direction 0.00627179 0.994526 0.104303   
     length 1.41419   
     axis 0 0 0   XYZ
    dof rx ry rz
    limits (-20.0 45.0)
           (-30.0 30.0)
           (-30.0 30.0)
  end
  begin
     id 16
     name head
     direction -0.00443838 0.999688 0.0245968  
     length 1.50718  
     axis 0 0 0   XYZ
    dof rx ry rz
    limits (-20.0 45.0)
           (-30.0 30.0)
           (-30.0 30.0)
  end
  begin
     id 17 
     name lclavicle
     direction 0.758742 0.650995 -0.0227258  
     length 2.86888  
     axis 0 0 0   XYZ
    dof ry rz
    limits (-20.0 10.0)
           (0.0 20.0)
  end
  begin
     id 18 
     name lhumerus
     direction 1 -4.48962e-011 1.06664e-027   
     length 4.65776   
     axis -180 -30 -90   XYZ
    dof rx ry rz
    limits (-60.0 90.0)
           (-90.0 90.0)
           (-90.0 90.0)
  end
  begin
     id 19
     name lradius
     direction 1 -4.48968e-011 1.40404e-026   
     length 3.55539   
     axis -180 -30 -90   XYZ
    dof rx
    limits (-10.0 170.0)
  end
  begin
     id 20
     name lwrist
     direction 1 -4.48976e-011 3.32647e-026   
     length 1.77769   
     axis -2.20186e-014 90 90   XYZ
    dof ry
    limits (-180.0 0.0)
 end
  begin
     id 21 
     name lhand
     direction 1 -4.48982e-011 6.65293e-026   
     length 0.707264   
     axis -4.24514e-014 90 90   XYZ
    dof rx rz
    limits (-90.0 90.0)
           (-45.0 45.0)
  end
  begin
     id 22 
     name lfingers
     direction 1 -4.48966e-011 1.33059e-025   
     length 0.570215   
     axis -8.49028e-014 90 90   XYZ
    dof rx
    limits (0.0 90.0)
  end
  begin
     id 23
     name lthumb
     direction 0.707107 -6.3493e-011 0.707107   
     length 0.818718   
     axis -90 45 2.85299e-015   XYZ
    dof rx rz
    limits (-45.0 45.0)
           (-45.0 45.0)
  end
  begin
     id 24 
     name rclavicle
     direction -0.870343 0.482028 -0.100759   
     length 3.2251  
     axis 0 0 0   XYZ 
    dof ry rz
    limits (-10.0 20.0)
           (-20.0 0.0)
  end
  begin
     id 25 
     name rhumerus
     direction -1 -4.48974e-011 -9.45849e-028  
     length 4.71925   
     axis -180 30 90   XYZ
    dof rx ry rz
    limits (-90.0 60.0)
           (-90.0 90.0)
           (-90.0 90.0)
  end
  begin
     id 26 
     name rradius
     direction -1 -4.48965e-011 1.17607e-026   
     length 3.5699   
     axis -180 30 90   XYZ
    dof rx
    limits (-10.0 170.0)
  end
  begin
     id 27 
     name rwrist
     direction -1 -4.48968e-011 3.32647e-026   
     length 1.78495   
     axis -2.20186e-014 -90 -90   XYZ
    dof ry
    limits (-180.0 0.0)
  end
  begin
     id 28
     name rhand
     direction -1 -4.48995e-011 6.65293e-026   
     length 0.507757   
     axis -4.24514e-014 -90 -90   XYZ
    dof rx rz
    limits (-90.0 90.0)
           (-45.0 45.0)
  end
  begin
     id 29
     name rfingers
     direction -1 -4.48864e-011 1.33059e-025   
     length 0.409367   
     axis -8.49028e-014 -90 -90   XYZ
    dof rx
    limits (0.0 90.0)
  end
  begin
     id 30
     name rthumb
     direction -0.707107 -6.3494e-011 0.707107   
     length 0.587771   
     axis -90 -45 -2.85299e-015   XYZ
    dof rx rz
    limits (-45.0 45.0)
           (-45.0 45.0)
  end
:hierarchy
  begin
    root lhipjoint rhipjoint lowerback
    lhipjoint lfemur
    lfemur ltibia
    ltibia lfoot
    lfoot ltoes
    rhipjoint rfemur
    rfemur rtibia
    rtibia rfoot
    rfoot rtoes
    lowerback upperback
    upperback thorax
    thorax lowerneck lclavicle rclavicle
    lowerneck upperneck
    upperneck head
    lclavicle lhumerus
    lhumerus lradius
    lradius lwrist
    lwrist lhand lthumb
    lhand lfingers
    rclavicle rhumerus
    rhumerus rradius
    rradius rwrist
    rwrist rhand rthumb
    rhand rfingers
  end

#!OML:ASF E:\Steps\Project 1\Capture day 1\Session 2\Subject.ASF
:FULLY-SPECIFIED
:DEGREES
16
root 9.30715 16.3457 10.3445 -152.603 -3.08262 179.709
lowerback -28.7692 -1.0472 -5.67825
upperback -2.4237 -0.236475 -0.568968
thorax 13.2675 -0.735573 2.46017
lowerneck 0.716854 0.134656 -4.18796
upperneck 8.78711 -0.685772 6.96901
head 2.75399 -0.456716 3.01356
rclavicle -8.94531e-015 -1.27222e-014
rhumerus -35.6653 -17.7689 -80.7676
rradius 29.7733
rwrist 0.756828
rhand -9.56331 -51.1585
rfingers 7.12502
rthumb 16.4041 -80.4848
lclavicle -8.94531e-015 -1.27222e-014
lhumerus -30.4292 6.18335 80.9231
lradius 22.5186
lwrist -6.74174
lhand -19.9171 -12.1844
lfingers 7.12502
lthumb 6.41988 17.6983
rfemur -26.6344 10.0489 17.1872
rtibia 10.2066
rfoot -20.5407 -6.76111
rtoes -29.6958
lfemur -28.3754 -11.49 -16.5503
ltibia 13.0054
lfoot -9.86829 2.84695
ltoes -36.9993
17
root 9.306 16.3443 10.3441 -152.624 -3.09873 179.696
lowerback -28.6968 -1.06305 -5.69657
upperback -2.45283 -0.261563 -0.555603
thorax 13.1968 -0.747028 2.477
lowerneck 0.71691 0.13941 -4.22937
upperneck 8.78976 -0.67891 6.9763
head 2.75498 -0.45433 3.0241
rclavicle -6.85807e-015 9.93923e-015
rhumerus -35.7586 -17.7734 -80.7029
rradius 29.8101
rwrist 0.767606
rhand -9.52911 -51.076
rfingers 7.12502
rthumb 16.4371 -80.3996
lclavicle -6.85807e-015 9.93923e-015
lhumerus -30.498 6.31058 80.8826
lradius 22.4888
lwrist -6.85594
lhand -19.9405 -12.186
lfingers 7.12502
lthumb 6.39722 17.6974
rfemur -26.7678 10.0235 17.1863
rtibia 10.5591
rfoot -20.7443 -6.75612
rtoes -29.8209
lfemur -28.3521 -11.4687 -16.5932
ltibia 13.0352
lfoot -9.83254 2.81356
ltoes -37.2658
18
root 9.30455 16.3434 10.3432 -152.654 -3.07484 179.661
lowerback -28.5936 -1.05422 -5.72274
upperback -2.50055 -0.253217 -0.578679
thorax 13.0847 -0.742565 2.46935
lowerneck 0.734369 0.137398 -4.23975
upperneck 8.7898 -0.683033 6.981
head 2.7522 -0.457224 3.02747
rclavicle -3.97569e-015 5.96354e-015
rhumerus -35.8663 -17.8126 -80.651
rradius 29.8084
rwrist 0.763436
rhand -9.35416 -51.0303
rfingers 7.12502
rthumb 16.6055 -80.3399
lclavicle -3.97569e-015 5.96354e-015
lhumerus -30.6623 6.20109 80.8563
lradius 22.5473
lwrist -6.83914
lhand -20.2027 -11.9423
lfingers 7.12502
lthumb 6.14414 17.9486
rfemur -26.5559 10.08 17.1217
rtibia 10.2073
rfoot -20.6221 -6.73305
rtoes -29.5951
lfemur -28.3021 -11.4779 -16.6684
ltibia 13.0636
lfoot -9.79605 2.80739
ltoes -37.8931
19
root 9.30389 16.3436 10.342 -152.688 -3.07166 179.655
lowerback -28.5046 -1.04828 -5.72236
upperback -2.53621 -0.254466 -0.595932
thorax 12.9954 -0.741091 2.44935
lowerneck 0.730364 0.127241 -4.2336
upperneck 8.79652 -0.697885 6.98317
head 2.75615 -0.464498 3.0269
rclavicle -8.15017e-015 1.19271e-015
rhumerus -35.9088 -17.8449 -80.6288
rradius 29.7619
rwrist 0.808281
rhand -9.13202 -51.1518
rfingers 7.12502
rthumb 16.8194 -80.4434
lclavicle -8.15017e-015 1.19271e-015
lhumerus -30.7519 6.14541 80.7897
lradius 22.5078
lwrist -6.83779
lhand -20.3602 -11.8441
lfingers 7.12502
lthumb 5.99203 18.0511
rfemur -26.4894 10.0976 17.1189
rtibia 10.1777
rfoot -20.6075 -6.73464
rtoes -29.4752
lfemur -28.2387 -11.4522 -16.6983
ltibia 13.0337
lfoot -9.78766 2.74723
ltoes -37.7238
20
root 9.30329 16.3427 10.3416 -152.702 -3.07589 179.626
lowerback -28.4229 -1.06668 -5.76323
upperback -2.57644 -0.278283 -0.587773
thorax 12.9066 -0.753218 2.47379
lowerneck 0.721041 0.128678 -4.26529
upperneck 8.8093 -0.696046 6.98625
head 2.76247 -0.464351 3.03428
rclavicle -8.05078e-015 -2.66371e-014
rhumerus -35.8878 -17.8603 -80.5571
rradius 29.631
rwrist 0.866983
rhand -9.07258 -51.2631
rfingers 7.12502
rthumb 16.8766 -80.5498
lclavicle -8.05078e-015 -2.66371e-014
lhumerus -30.7701 6.25343 80.738
lradius 22.3799
lwrist -6.92355
lhand -20.2094 -12.4734
lfingers 7.12502
lthumb 6.13762 17.4177
rfemur -26.4535 10.0645 17.1012
rtibia 10.1573
rfoot -20.6214 -6.71246
rtoes -29.7973
lfemur -28.2041 -11.4091 -16.7501
ltibia 12.9981
lfoot -9.7949 2.66235
ltoes -37.2116
21
root 9.30235 16.3428 10.3432 -152.682 -3.02375 179.571
lowerback -28.2719 -1.07198 -5.84818
upperback -2.68521 -0.288153 -0.589562
thorax 12.6988 -0.761133 2.51803
lowerneck 0.685467 0.126454 -4.32536
upperneck 8.83867 -0.698318 6.99101
head 2.77989 -0.466406 3.04802
rclavicle -8.05078e-015 4.13472e-014
rhumerus -35.9991 -17.7922 -80.4951
rradius 29.5783
rwrist 0.825691
rhand -9.29706 -51.1279
rfingers 7.12502
rthumb 16.6605 -80.4329
lclavicle -8.05078e-015 4.13472e-014
lhumerus -30.8853 6.43774 80.687
lradius 22.2654
lwrist -7.12355
lhand -20.2039 -12.9656
lfingers 7.12502
lthumb 6.14296 16.9254
rfemur -26.5012 10.0668 17.0067
rtibia 10.1576
rfoot -20.643 -6.67434
rtoes -29.9474
lfemur -28.2576 -11.442 -16.8151
ltibia 13.0454
lfoot -9.79611 2.75117
ltoes -37.7439
22
root 9.30117 16.3437 10.3443 -152.682 -2.99294 179.55
lowerback -28.2557 -1.07776 -5.87671
upperback -2.69566 -0.289094 -0.599681
thorax 12.6778 -0.762907 2.52251
lowerneck 0.655086 0.124636 -4.36259
upperneck 8.8454 -0.698664 6.99772
head 2.78834 -0.466526 3.05777
rclavicle -4.57205e-015 1.15295e-014
rhumerus -36.0447 -17.6424 -80.5554
rradius 29.6508
rwrist 0.658504
rhand -9.44163 -51.261
rfingers 7.12502
rthumb 16.5213 -80.5776
lclavicle -4.57205e-015 1.15295e-014
lhumerus -30.887 6.73983 80.5741
lradius 22.127
lwrist -7.44159
lhand -20.457 -12.8097
lfingers 7.12502
lthumb 5.89866 17.0882
rfemur -26.5256 10.1866 16.9322
rtibia 10.1765
rfoot -20.5873 -6.75071
rtoes -29.8323
lfemur -28.2641 -11.4489 -16.8514
ltibia 13.044
lfoot -9.73957 2.80747
ltoes -38.4537
